HIERARCHY
ROOT Hips
{
	OFFSET 53.568001 -11.761115 95.704597
	CHANNELS 6 Xposition Yposition Zposition Xrotation Yrotation Zrotation
	JOINT spine
	{
		OFFSET 0.000000 -0.458069 7.965683
		CHANNELS 3 Xrotation Yrotation Zrotation
		JOINT spine1
		{
			OFFSET 0.000000 -0.000001 10.243103
			CHANNELS 3 Xrotation Yrotation Zrotation
			JOINT spine2
			{
				OFFSET 0.000000 -0.000002 9.814751
				CHANNELS 3 Xrotation Yrotation Zrotation
				JOINT Neck
				{
					OFFSET 0.000000 -1.201384 25.198593
					CHANNELS 3 Xrotation Yrotation Zrotation
					JOINT Head
					{
						OFFSET 0.000000 -0.000002 7.613144
						CHANNELS 3 Xrotation Yrotation Zrotation
						End Site
						{
							OFFSET 0.000000 6.077327 18.428101
						}
					}
				}
				JOINT RightShoulder
				{
					OFFSET -4.132698 0.575449 10.599197
					CHANNELS 3 Xrotation Yrotation Zrotation
					JOINT RightArm
					{
						OFFSET 0.000000 -0.000002 13.901794
						CHANNELS 3 Xrotation Yrotation Zrotation
						JOINT RightArmRoll
						{
							OFFSET 0.000000 -0.000002 7.017883
							CHANNELS 3 Xrotation Yrotation Zrotation
							JOINT RightForeArm
							{
								OFFSET 0.000000 -0.000003 20.440598
								CHANNELS 3 Xrotation Yrotation Zrotation
								JOINT RightForeArmRoll
								{
									OFFSET 0.000000 -0.000001 7.875168
									CHANNELS 3 Xrotation Yrotation Zrotation
									JOINT RightHand
									{
										OFFSET 0.000000 -0.000003 15.803696
										CHANNELS 3 Xrotation Yrotation Zrotation
										End Site
										{
											OFFSET 0.000000 0.000000 0.100006
										}
									}
								}
							}
						}
					}
				}
				JOINT LeftShoulder
				{
					OFFSET 4.132698 0.575449 10.599197
					CHANNELS 3 Xrotation Yrotation Zrotation
					JOINT LeftArm
					{
						OFFSET 0.000000 -0.000002 13.901794
						CHANNELS 3 Xrotation Yrotation Zrotation
						JOINT LeftArmRoll
						{
							OFFSET 0.000000 -0.000002 7.017883
							CHANNELS 3 Xrotation Yrotation Zrotation
							JOINT LeftForeArm
							{
								OFFSET 0.000000 -0.000003 20.440598
								CHANNELS 3 Xrotation Yrotation Zrotation
								JOINT LeftForeArmRoll
								{
									OFFSET 0.000000 -0.000001 7.875153
									CHANNELS 3 Xrotation Yrotation Zrotation
									JOINT LeftHand
									{
										OFFSET 0.000000 -0.000003 15.803696
										CHANNELS 3 Xrotation Yrotation Zrotation
										End Site
										{
											OFFSET 0.000000 0.000000 0.100006
										}
									}
								}
							}
						}
					}
				}
			}
		}
	}
	JOINT RightUpLeg
	{
		OFFSET -7.060478 1.086100 -1.294701
		CHANNELS 3 Xrotation Yrotation Zrotation
		JOINT RightUpLegRoll
		{
			OFFSET 0.000000 -0.000003 18.530800
			CHANNELS 3 Xrotation Yrotation Zrotation
			JOINT RightLeg
			{
				OFFSET 0.000000 0.000004 -22.947601
				CHANNELS 3 Xrotation Yrotation Zrotation
				JOINT RightLegRoll
				{
					OFFSET 0.000000 -0.000004 23.022598
					CHANNELS 3 Xrotation Yrotation Zrotation
					JOINT RightFoot
					{
						OFFSET 0.000000 -0.000004 19.162498
						CHANNELS 3 Xrotation Yrotation Zrotation
						JOINT RightToeBase
						{
							OFFSET 0.000000 -0.000002 16.018799
							CHANNELS 3 Xrotation Yrotation Zrotation
							End Site
							{
								OFFSET 0.006790 0.894204 7.757812
							}
						}
					}
				}
			}
		}
	}
	JOINT LeftUpLeg
	{
		OFFSET 7.060478 1.086100 -1.294701
		CHANNELS 3 Xrotation Yrotation Zrotation
		JOINT LeftUpLegRoll
		{
			OFFSET 0.000000 -0.000003 18.530899
			CHANNELS 3 Xrotation Yrotation Zrotation
			JOINT LeftLeg
			{
				OFFSET 0.000000 -0.000004 22.947495
				CHANNELS 3 Xrotation Yrotation Zrotation
				JOINT LeftLegRoll
				{
					OFFSET 0.000000 -0.000004 23.235504
					CHANNELS 3 Xrotation Yrotation Zrotation
					JOINT LeftFoot
					{
						OFFSET 0.000000 -0.000003 18.949600
						CHANNELS 3 Xrotation Yrotation Zrotation
						JOINT LeftToeBase
						{
							OFFSET 0.000000 -0.000003 16.018799
							CHANNELS 3 Xrotation Yrotation Zrotation
							End Site
							{
								OFFSET -0.030430 0.894206 7.757812
							}
						}
					}
				}
			}
		}
	}
}
MOTION
Frames: 8
Frame Time: 0.041667
53.044502 -12.151917 95.662003 -3.253366 1.012066 0.927456 -1.395893 -0.400058 0.191129 1.206758 -0.802866 0.382256 2.851876 -0.798226 0.391844 23.765927 0.371932 0.846534 -1.651229 1.026334 0.777980 11.777087 -70.127676 11.612163 -45.847962 -114.506988 -23.227100 0.000004 0.000002 -0.000002 0.027328 -2.913550 -0.082313 -0.000001 0.000001 -3.012111 -5.000170 -7.999739 0.000032 1.121864 72.738475 0.412702 -45.545733 116.936759 29.119402 0.000005 0.000000 0.000000 5.521231 5.119287 -0.473041 0.000009 -0.000008 3.003090 -5.000216 7.999343 -0.000080 5.721927 -177.127350 -2.700616 -179.999991 0.000005 -1.220003 177.158510 -1.709892 -0.501862 0.000003 -0.000001 0.030696 69.258200 6.960670 1.924083 25.543507 -7.355416 0.129221 1.530759 171.698921 -1.298682 -0.000020 -0.000004 -1.165250 -7.023813 2.019205 0.410522 -0.000003 0.000001 -0.050015 69.803386 -6.650597 -2.711839 25.456952 7.355612 -0.000002 
53.045105 -12.148017 95.675995 -3.252231 1.013106 0.928084 -1.396234 -0.399961 0.191233 1.206488 -0.802673 0.382041 2.851607 -0.798036 0.391628 23.766823 0.369638 0.849007 -1.648320 1.017739 0.781067 11.840863 -70.137560 11.680171 -45.847016 -114.442483 -23.210398 0.000006 0.000002 -0.000000 0.027225 -2.925220 -0.082623 -0.000003 0.000001 -3.012041 -5.000170 -7.999740 0.000033 1.118338 72.733803 0.416026 -45.532753 116.936527 29.107036 0.000004 0.000000 0.000000 5.529976 5.118773 -0.472964 0.000011 -0.000007 3.003089 -5.000216 7.999343 -0.000079 5.719057 -177.128334 -2.695930 -179.999991 0.000005 -1.220003 177.159124 -1.718884 -0.502289 0.000003 -0.000001 0.030696 69.258200 6.960670 1.924083 25.536539 -7.355424 0.118792 1.536427 171.698935 -1.300011 -0.000020 -0.000004 -1.165250 -7.011376 2.019318 0.409692 -0.000003 0.000000 -0.050016 69.799663 -6.651838 -2.708484 25.456948 7.355613 -0.000001 
53.037701 -12.145515 95.674103 -3.251060 1.014145 0.928771 -1.396544 -0.399872 0.191352 1.206278 -0.802494 0.381842 2.851406 -0.797860 0.391426 23.767412 0.367664 0.851392 -1.645272 1.008554 0.784130 11.906677 -70.147778 11.750368 -45.842758 -114.377993 -23.189563 0.000008 0.000002 -0.000001 0.027119 -2.936670 -0.082859 -0.000000 0.000001 -3.011980 -5.000170 -7.999741 0.000033 1.114526 72.729022 0.419656 -45.518119 116.938180 29.092651 0.000003 -0.000000 -0.000003 5.538894 5.117411 -0.472889 0.000009 -0.000008 3.003091 -5.000216 7.999343 -0.000079 5.716032 -177.128320 -2.690782 -179.999991 0.000006 -1.220004 177.159903 -1.727876 -0.501701 0.000003 -0.000001 0.030696 69.258200 6.960671 1.924083 25.528966 -7.355438 0.107502 1.542500 171.698962 -1.301347 -0.000020 -0.000004 -1.165250 -6.997997 2.019387 0.408805 -0.000003 0.000000 -0.050015 69.795757 -6.653137 -2.704851 25.456953 7.355613 -0.000002 
53.039204 -12.148415 95.667389 -3.249871 1.015195 0.929501 -1.396842 -0.399788 0.191480 1.206118 -0.802326 0.381653 2.851236 -0.797694 0.391236 23.767911 0.365916 0.853708 -1.642117 0.998946 0.787180 11.973810 -70.158002 11.821977 -45.839087 -114.312382 -23.169103 0.000006 0.000002 -0.000001 0.026998 -2.947970 -0.083047 -0.000003 0.000000 -3.011920 -5.000170 -7.999739 0.000031 1.110510 72.724248 0.423495 -45.504472 116.940243 29.079039 0.000004 -0.000001 -0.000001 5.547977 5.115444 -0.472807 0.000008 -0.000007 3.003090 -5.000217 7.999343 -0.000078 5.712897 -177.129304 -2.685478 -179.999991 0.000006 -1.220004 177.160736 -1.737864 -0.502170 0.000003 -0.000001 0.030696 69.258193 6.960670 1.924083 25.520990 -7.355442 0.095605 1.548880 171.698989 -1.302698 -0.000020 -0.000003 -1.165250 -6.983958 2.019407 0.407878 -0.000003 0.000000 -0.050016 69.791535 -6.654496 -2.701244 25.456950 7.355613 -0.000002 
53.044895 -12.151517 95.671906 -3.248662 1.016234 0.930255 -1.397136 -0.399706 0.191615 1.205978 -0.802164 0.381470 2.851096 -0.797535 0.391051 23.768307 0.364295 0.855999 -1.638898 0.989102 0.790219 12.041811 -70.168330 11.894517 -45.833124 -114.247195 -23.146027 0.000004 0.000003 0.000000 0.026878 -2.959180 -0.083207 -0.000001 0.000000 -3.011851 -5.000172 -7.999740 0.000033 1.106376 72.719371 0.427472 -45.491140 116.942428 29.065832 0.000004 0.000000 -0.000001 5.557131 5.113144 -0.472722 0.000009 -0.000007 3.003091 -5.000218 7.999343 -0.000079 5.709695 -177.130287 -2.680037 -179.999991 0.000005 -1.220004 177.161624 -1.747853 -0.501642 0.000003 -0.000001 0.030696 69.258200 6.960671 1.924083 25.512807 -7.355450 0.083366 1.555414 171.699017 -1.304052 -0.000020 -0.000004 -1.165250 -6.969549 2.019421 0.406931 -0.000003 0.000000 -0.050016 69.787239 -6.655913 -2.697356 25.456952 7.355613 -0.000002 
53.046101 -12.152616 95.663597 -3.247464 1.017274 0.931013 -1.397415 -0.399626 0.191752 1.205838 -0.802004 0.381289 2.850966 -0.797377 0.390868 23.768700 0.362706 0.858276 -1.635670 0.979200 0.793259 12.110059 -70.178630 11.967325 -45.828623 -114.181215 -23.124338 0.000007 0.000003 -0.000000 0.026750 -2.970370 -0.083359 0.000001 0.000002 -3.011792 -5.000171 -7.999739 0.000033 1.102218 72.714488 0.431471 -45.476417 116.945324 29.050936 0.000003 -0.000000 -0.000001 5.566309 5.110757 -0.472638 0.000008 -0.000008 3.003090 -5.000217 7.999343 -0.000079 5.706483 -177.130274 -2.674458 -179.999991 0.000005 -1.220003 177.162526 -1.757842 -0.502108 0.000002 -0.000001 0.030696 69.258200 6.960671 1.924083 25.504521 -7.355444 0.071037 1.562004 171.699044 -1.305403 -0.000020 -0.000003 -1.165250 -6.955042 2.019422 0.405976 -0.000003 0.000001 -0.050016 69.782827 -6.657331 -2.693575 25.456953 7.355611 -0.000001 
53.046303 -12.152115 95.663795 -3.246265 1.018323 0.931761 -1.397707 -0.399544 0.191886 1.205698 -0.801840 0.381104 2.850816 -0.797215 0.390681 23.769094 0.361054 0.860571 -1.632460 0.969416 0.796304 12.178045 -70.188916 12.039854 -45.822923 -114.116075 -23.101414 0.000007 0.000002 -0.000001 0.026627 -2.981600 -0.083524 -0.000001 0.000002 -3.011731 -5.000171 -7.999740 0.000033 1.098125 72.709713 0.435397 -45.463105 116.947510 29.037730 0.000005 -0.000000 -0.000001 5.575435 5.108538 -0.472554 0.000012 -0.000007 3.003091 -5.000218 7.999342 -0.000077 5.703292 -177.131244 -2.669047 -179.999991 0.000006 -1.220004 177.163400 -1.767830 -0.501579 0.000002 -0.000001 0.030696 69.258193 6.960671 1.924083 25.496335 -7.355450 0.058878 1.568501 171.699071 -1.306752 -0.000020 -0.000004 -1.165250 -6.940723 2.019435 0.405034 -0.000003 0.000001 -0.050015 69.778620 -6.658687 -2.689769 25.456953 7.355612 -0.000002 
53.043003 -12.153917 95.661797 -3.245073 1.019363 0.932478 -1.398005 -0.399458 0.192011 1.205518 -0.801670 0.380912 2.850636 -0.797046 0.390487 23.769589 0.359240 0.862915 -1.629337 0.959931 0.799363 12.245039 -70.198956 12.111318 -45.818128 -114.051264 -23.079592 0.000006 0.000003 0.000000 0.026514 -2.992940 -0.083726 -0.000001 0.000001 -3.011660 -5.000169 -7.999740 0.000031 1.094176 72.704939 0.439174 -45.449124 116.949436 29.023823 0.000004 0.000000 -0.000000 5.584479 5.106748 -0.472472 0.000008 -0.000006 3.003091 -5.000213 7.999343 -0.000080 5.700189 -177.131230 -2.663722 -179.999991 0.000005 -1.220003 177.164247 -1.776822 -0.501999 0.000002 -0.000001 0.030696 69.258200 6.960670 1.924083 25.488560 -7.355441 0.047166 1.574793 171.698088 -1.308127 -0.000020 -0.000003 -1.165250 -6.926872 2.019474 0.404119 -0.000003 0.000001 -0.050015 69.774412 -6.660076 -2.686072 25.456952 7.355612 -0.000002 
